<?xml version="1.0" encoding="UTF-8" standalone="no"?>
<svg width="20px" height="21px" viewBox="0 0 20 21" version="1.1" xmlns="http://www.w3.org/2000/svg" xmlns:xlink="http://www.w3.org/1999/xlink" xmlns:sketch="http://www.bohemiancoding.com/sketch/ns">
    <!-- Generator: Sketch 3.3 (11970) - http://www.bohemiancoding.com/sketch -->
    <title>Imported Layers 2</title>
    <desc>Created with Sketch.</desc>
    <defs/>
    <g id="Page-1" stroke="none" stroke-width="1" fill="none" fill-rule="evenodd" sketch:type="MSPage">
        <g id="Not-SIgned-In-SPEC-Copy" sketch:type="MSArtboardGroup" transform="translate(-1327.000000, -354.000000)" fill="#FFFFFF">
            <g id="desktop-signed-in" sketch:type="MSLayerGroup" transform="translate(1308.000000, 335.500000)">
                <path d="M37.8866667,27.0533333 L35.1,27.0533333 C34.9346667,26.52 34.7013333,26.0146667 34.4186667,25.5466667 L36.2653333,23.6933333 C36.7013333,23.2626667 36.7013333,22.5573333 36.2653333,22.124 L35.4813333,21.34 C35.0466667,20.908 34.3426667,20.9093333 33.9106667,21.34 L32.0306667,23.2173333 C31.5226667,22.928 30.972,22.704 30.3866667,22.5533333 L30.3866667,20.112 C30.3866667,19.5 29.892,19 29.276,19 L28.1666667,19 C27.5546667,19 27.056,19.5 27.056,20.112 L27.056,22.5533333 C26.4186667,22.7146667 25.82,22.9693333 25.2693333,23.304 L23.6973333,21.7306667 C23.264,21.3 22.5573333,21.2986667 22.1253333,21.7306667 L21.3373333,22.516 C20.904,22.948 20.9093333,23.6546667 21.34,24.0893333 L22.9426667,25.6906667 C22.604,26.2813333 22.3493333,26.9266667 22.204,27.6093333 L20.1133333,27.6093333 C19.4986667,27.6093333 19,28.1066667 19,28.7213333 L19,29.832 C19,30.444 19.4986667,30.94 20.1133333,30.94 L22.3466667,30.94 C22.548,31.6106667 22.8546667,32.228 23.2453333,32.7893333 L21.7346667,34.3 C21.3,34.736 21.3,35.44 21.7306667,35.8733333 L22.516,36.6586667 C22.952,37.0893333 23.6573333,37.0893333 24.0893333,36.656 L25.7773333,34.9693333 C26.3453333,35.252 26.9626667,35.4573333 27.6106667,35.5626667 L27.6106667,37.8853333 C27.6106667,38.4986667 28.108,38.9973333 28.7226667,38.9986667 L29.8333333,38.9986667 C30.4453333,38.9973333 30.944,38.4986667 30.944,37.8853333 L30.944,35.276 C31.5026667,35.0773333 32.0333333,34.812 32.5146667,34.4746667 L34.3026667,36.2653333 C34.7373333,36.6986667 35.4386667,36.6986667 35.8746667,36.2653333 L36.66,35.48 C37.096,35.0466667 37.096,34.344 36.656,33.908 L34.696,31.944 C34.9373333,31.456 35.124,30.9373333 35.24,30.3866667 L37.8866667,30.3866667 C38.5013333,30.3866667 38.9973333,29.892 39,29.2746667 L39,28.1653333 C38.9973333,27.5533333 38.5013333,27.0533333 37.8866667,27.0533333 L37.8866667,27.0533333 Z M28.7226667,31.7746667 C27.1906667,31.7746667 25.9466667,30.5346667 25.9466667,28.9986667 C25.9466667,27.464 27.1906667,26.224 28.7226667,26.224 C30.2586667,26.224 31.5013333,27.464 31.5013333,28.9986667 C31.5013333,30.5346667 30.2586667,31.7746667 28.7226667,31.7746667 L28.7226667,31.7746667 Z" id="Imported-Layers-2" sketch:type="MSShapeGroup"/>
            </g>
        </g>
    </g>
</svg>